<?xml version="1.0" standalone="no"?>
<!DOCTYPE svg PUBLIC "-//W3C//DTD SVG 20010904//EN"
 "http://www.w3.org/TR/2001/REC-SVG-20010904/DTD/svg10.dtd">
<svg version="1.0" xmlns="http://www.w3.org/2000/svg"
 width="512.000000pt" height="512.000000pt" viewBox="0 0 512.000000 512.000000"
 preserveAspectRatio="xMidYMid meet">
<metadata>
Created by potrace 1.11, written by Peter Selinger 2001-2013
</metadata>
<g transform="translate(0.000000,512.000000) scale(0.100000,-0.100000)"
fill="#000000" stroke="none">
<path d="M2320 5110 c-502 -52 -982 -248 -1365 -557 -288 -232 -517 -518 -684
-854 -124 -249 -204 -502 -247 -784 -26 -169 -26 -541 0 -710 71 -465 260
-899 543 -1250 232 -288 518 -517 854 -684 249 -124 502 -204 784 -247 169
-26 541 -26 710 0 465 71 899 260 1250 543 288 232 517 518 684 854 124 249
204 502 247 784 26 169 26 541 0 710 -71 465 -260 899 -543 1250 -232 288
-518 517 -854 684 -246 123 -506 205 -779 246 -124 19 -478 28 -600 15z m99
-1287 c16 -13 28 -47 45 -123 42 -184 111 -347 208 -486 48 -71 49 -72 46
-142 l-3 -70 -85 24 c-178 51 -391 176 -515 303 l-49 51 13 37 c40 112 159
316 229 391 35 37 77 43 111 15z m-738 -153 c10 -6 37 -46 58 -88 134 -266
353 -487 614 -618 126 -64 320 -120 480 -138 l47 -6 0 180 c0 155 3 188 21
243 39 120 140 220 258 257 57 18 92 20 372 20 l309 0 -77 -152 -78 -153 -6
-480 c-6 -534 -5 -527 -79 -681 -78 -163 -211 -295 -374 -374 -139 -67 -179
-73 -473 -79 l-262 -6 -161 -138 c-214 -184 -210 -181 -319 -174 -143 10 -301
51 -411 107 -143 72 -320 247 -320 317 0 14 12 37 28 51 23 23 76 39 386 116
l360 89 -55 46 c-102 86 -231 216 -285 288 -254 337 -332 715 -228 1104 33
123 80 240 105 262 24 19 61 22 90 7z"/>
<path d="M3241 3186 c-46 -25 -54 -84 -16 -121 62 -63 161 6 129 90 -7 17 -55
45 -76 45 -7 -1 -24 -7 -37 -14z"/>
</g>
</svg>
